<?xml version="1.0" encoding="utf-8"?>
<!-- Generator: Adobe Illustrator 27.9.0, SVG Export Plug-In . SVG Version: 6.00 Build 0)  -->
<svg version="1.1" id="Calque_1" xmlns="http://www.w3.org/2000/svg" xmlns:xlink="http://www.w3.org/1999/xlink" x="0px" y="0px"
	 viewBox="0 0 444 583" style="enable-background:new 0 0 444 583;" xml:space="preserve">
<g>
	<path d="M51.11,431.15c-9.77-18.31-12.63-38.1-9.97-58.42c7.13-54.39,32.49-97.05,81.66-123.87c1.71-0.93,3.41-1.88,5.47-3.02
		c-10.39-9.62-16.87-21.27-21.84-33.91c-0.48-1.22-2.12-2.65-3.37-2.82c-19.35-2.52-31.5-13.13-35.67-32.38
		c-2.3-10.63-3.28-21.51,2.58-31.56c5.47-9.38,13.58-15.32,24.27-17.61c0.84-7.78,1.12-15.61,2.59-23.21
		c9.38-48.29,37.16-80.62,84.88-93.73C222.09-0.45,261.01,4.22,296.21,28c25.92,17.52,40.64,42.93,46.69,73.36
		c1.68,8.45,2.29,17.12,3.41,25.87c3.58,1.25,7.68,2.12,11.22,4.02c10.57,5.67,16.58,14.67,17.52,26.69
		c1.28,16.34-2.36,31-14.85,42.67c-6.02,5.62-12.84,8.83-21.12,8.41c-3.05-0.16-4.68,0.75-5.86,3.82
		c-4.62,12.03-11.05,23.01-20.3,31.97c8.5,5.3,17.15,9.89,24.91,15.69c32.26,24.09,50.78,56.9,59.11,95.8
		c4.79,22.34,5.12,44.55-3.65,66.18c-1.18,2.91-2.63,5.7-3.81,8.23c6.55,4.28,13.55,8.06,19.65,12.96
		c32.33,25.95,36.24,85.46-5.01,114.27c-20.85,14.56-44.13,19.69-68.99,18.36c-39.96-2.13-75.77-17.16-109.96-36.7
		c-3.01-1.72-5-1.84-7.99-0.09c-25.5,14.89-52.27,26.79-81.29,32.95c-25.58,5.43-51.29,6.69-76.25-2.55
		c-26.08-9.65-45.08-26.44-50.97-55.11c-6.53-31.79,7.83-68.23,41.5-82.84C50.47,431.82,50.68,431.53,51.11,431.15z M330.18,140.04
		c-1.06-10.92-1.39-21.97-3.33-32.73c-6.41-35.54-25.7-61.56-59.19-75.97c-22.39-9.64-45.91-11.85-69.87-7.38
		c-42.09,7.85-70.38,31.78-81.82,73.38c-8.75,31.82-6.48,63.95,1.7,95.64c4.56,17.66,12.16,34.03,27.02,45.47
		c32.78,25.23,69.43,32.8,109.47,21.86c35.13-9.6,58.43-31.56,68.51-66.98C327.63,175.91,329.39,158.12,330.18,140.04z
		 M284.53,391.09c11.83-4.73,19.14-13.04,22.3-24.73c1.37-5.07,1.38-10.51,2.06-15.77c0.57-4.41,3.01-7.8,7.35-8.31
		c4.64-0.55,7.52,2.93,8.4,7.05c0.89,4.16,1.36,8.66,0.75,12.83c-3.53,24.11-17.65,39.35-40.35,47.24c-1.8,0.63-3.96,2.04-4.67,3.66
		c-5.27,11.91-13.84,21.07-23.68,29.18c-4.53,3.74-9.36,7.11-14.27,10.81c0.76,0.41,1.14,0.72,1.58,0.85
		c22.83,6.91,46.14,7.87,69.62,4.95c14.96-1.86,29.29-6.14,41.75-14.99c19.77-14.05,27-34.55,27.46-57.6
		c0.59-30-9.04-57.15-25.89-81.76c-14.33-20.94-33.32-36.25-56.68-46.31c-24.93,31.88-49.69,63.53-74.44,95.18
		c13.82-5.2,27.24-5.73,39.88,2.07C278.56,363.38,284.06,375.81,284.53,391.09z M141.4,259.34
		c-57.86,23.34-85.51,84.55-83.56,129.67c1.46,33.9,18.1,55.22,50.61,65.38c21.57,6.74,43.55,7.07,65.66,4.21
		c8.24-1.06,16.32-3.36,25.51-5.32c-2.16-1.49-3.1-2.15-4.05-2.79c-14.69-9.9-27.52-21.46-34.97-38.06
		c-0.6-1.33-2.59-2.43-4.16-2.88c-8.8-2.53-16.65-6.78-23.2-13.11c-12.75-12.33-19.52-27.1-17.24-45.21c0.67-5.3,4.41-9.3,8.29-9.16
		c2.89,0.1,8.02,4.21,8.02,9.47c0,4.94,0.48,10.07,1.87,14.78c3.45,11.67,10.69,20.22,22.5,24.95c0.9-27.67,21.76-46.34,49.33-40.42
		c1.53,0.33,3.48-1.27,5.78-2.2C187.86,318.26,164.61,288.76,141.4,259.34z M281.8,476.98c-18.91-1.24-36.1-4.15-52.22-11.15
		c-6.53-2.84-11.64-2.85-18.35,0.02c-29.29,12.51-60.04,14.06-91.02,8.67c-21.19-3.69-40.91-11.42-56.64-27.11
		c-0.93-0.92-3.68-0.83-5.19-0.23c-31.71,12.7-44.48,52.98-25.77,81.79c12.95,19.94,32.96,27.68,55.43,29.9
		c21.27,2.1,42.06-1.38,62.44-7.58C199.37,536.4,239.48,506.07,281.8,476.98z M237.2,527.47c31.85,17.71,64.75,30.81,101.35,31.93
		c19.3,0.59,37.73-2.94,54.03-14.12c34.33-23.55,32.45-74.73-3.47-95.12c-8.52-4.84-8.52-4.84-15.68,1.49
		c-0.37,0.33-0.76,0.65-1.14,0.97c-14.05,11.69-30.61,17.91-48.23,21.25c-8.84,1.68-16.64,4.66-23.78,10.2
		c-7.87,6.11-16.27,11.54-24.5,17.17C263.06,509.94,250.3,518.57,237.2,527.47z M221.21,377.87c-4.99-3.05-9.27-6.36-14.07-8.47
		c-16.22-7.11-31.31,1.78-33.39,19.34c-1.04,8.83,1.48,16.78,6.47,23.93c9.86,14.12,23.51,23.73,38.54,31.56
		c1.16,0.61,3.25,0.43,4.47-0.21c13.34-7.04,25.38-15.81,34.84-27.73c6.75-8.51,10.4-18.02,8.97-29.13
		c-1.58-12.27-10.78-20.42-23.08-20.16C234.73,367.2,227.82,372.38,221.21,377.87z M267.61,273.31
		c-31.9,10.89-62.78,11.06-94.3-0.11c16.04,20.45,31.49,40.14,47.13,60.1C236.13,313.35,251.51,293.78,267.61,273.31z M347,144.83
		c-2.03,15.92-4.07,31.93-6.09,47.76c10.39-2.29,17.74-13.43,18.18-28.22C359.41,153.32,355.49,147.22,347,144.83z M99.23,192.84
		c-1.81-16.04-3.6-31.89-5.39-47.7c-7.24,2.06-11.44,6.99-11.85,14.37c-0.17,3.15-0.35,6.37,0.06,9.48
		C83.52,180.08,88.41,188.78,99.23,192.84z"/>
	<path d="M219.05,220.06c-7.01-0.29-14.5-2.01-20.76-7.27c-3.08-2.59-4.84-5.78-2.01-9.5c2.84-3.74,5.87-2.55,9.5-0.4
		c9.57,5.68,19.51,5.99,29.17,0.07c3.68-2.25,7.12-3.5,9.93,0.65c2.8,4.14,0.17,7.36-2.95,9.78
		C235.52,218.34,227.99,220.04,219.05,220.06z"/>
	<path d="M268.04,184.33c-5.39-1.86-10.92-3.39-16.09-5.72c-2.21-1-4.54-3.42-5.2-5.68c-0.65-2.22-0.02-5.8,1.5-7.35
		c1.19-1.21,5.23-1.17,6.94-0.05c10.45,6.8,16.67,6.57,26.93-0.88c1.71-1.24,5.91-1.29,7.37-0.04c1.5,1.28,2.06,5.23,1.26,7.33
		C288.16,178.68,278.51,183.18,268.04,184.33z"/>
	<path d="M170.62,183.09c-6.92,0.06-14.01-2.59-19.19-9.24c-2.39-3.06-3.81-6.61-0.17-9.73c3.65-3.13,6.57-1.19,9.42,1.76
		c5.72,5.92,16.37,6.34,23.16,0.68c3.22-2.69,6.07-3.65,9.01-0.31c2.86,3.26,1.67,6.58-0.98,9.32
		C186.45,181.17,179.56,183.09,170.62,183.09z"/>
	<path d="M269.28,120.52c5.52,1.86,12.39,4.05,19.16,6.53c1.63,0.6,3.06,2,4.33,3.28c2.17,2.19,3.19,4.75,1.08,7.57
		c-2.03,2.72-4.69,3.81-7.82,2.02c-9.37-5.34-19.17-6.91-29.75-4.34c-3.89,0.95-6.29-1.67-7.23-5.26c-0.94-3.6,1.05-5.91,4.3-6.72
		C257.99,122.45,262.76,121.76,269.28,120.52z"/>
	<path d="M191.07,127.79c-0.2,5.84-4.34,9-8.69,7.62c-9.39-2.97-18.04-1.4-26.08,3.93c-3.4,2.25-6.53,2.64-9.26-0.64
		c-2.87-3.46-1.19-6.51,1.53-9.15c8.4-8.19,28.69-11.28,38.91-5.72C189.24,124.79,190.34,126.96,191.07,127.79z"/>
	<path d="M220.54,426.69c-9.12-5.93-16.68-13.31-22.5-22.38c-4.07-6.34-4.09-11.84-0.4-14.96c3.64-3.08,8.27-2.35,14.31,2.53
		c3.21,2.59,6.18,5.46,9.16,8.11c2.99-2.83,6.39-6.48,10.24-9.57c3.52-2.81,7.65-4.26,11.89-1.16c3.39,2.48,3.87,7.03,1.51,12.25
		C241.18,409.45,230.31,420.84,220.54,426.69z"/>
</g>
</svg>
